<?xml version="1.0" encoding="UTF-8" standalone="no"?>
<!-- Created with Inkscape (http://www.inkscape.org/) -->

<svg
   xmlns:dc="http://purl.org/dc/elements/1.1/"
   xmlns:cc="http://creativecommons.org/ns#"
   xmlns:rdf="http://www.w3.org/1999/02/22-rdf-syntax-ns#"
   xmlns:svg="http://www.w3.org/2000/svg"
   xmlns="http://www.w3.org/2000/svg"
   xmlns:sodipodi="http://sodipodi.sourceforge.net/DTD/sodipodi-0.dtd"
   xmlns:inkscape="http://www.inkscape.org/namespaces/inkscape"
   width="420mm"
   height="297mm"
   viewBox="0 0 420 297"
   id="SVGRoot"
   version="1.1"
   inkscape:version="0.91 r13725"
   sodipodi:docname="big-tree.svg">
  <sodipodi:namedview
     id="base"
     pagecolor="#ffffff"
     bordercolor="#666666"
     borderopacity="1.0"
     inkscape:pageopacity="0.0"
     inkscape:pageshadow="2"
     inkscape:zoom="0.35"
     inkscape:cx="744.09449"
     inkscape:cy="526.1811"
     inkscape:document-units="mm"
     inkscape:current-layer="layer1"
     showgrid="false"
     inkscape:window-width="3316"
     inkscape:window-height="1794"
     inkscape:window-x="150"
     inkscape:window-y="68"
     inkscape:window-maximized="0" />
  <defs
     id="defs5233" />
  <metadata
     id="metadata5236">
    <rdf:RDF>
      <cc:Work
         rdf:about="">
        <dc:format>image/svg+xml</dc:format>
        <dc:type
           rdf:resource="http://purl.org/dc/dcmitype/StillImage" />
        <dc:title></dc:title>
      </cc:Work>
    </rdf:RDF>
  </metadata>
  <g
     id="layer1"
     inkscape:groupmode="layer"
     inkscape:label="Layer 1">
    <path
       style="fill:#019796;fill-opacity:1"
       d="m 45.356272,146.02488 c 0.236941,-0.79516 0.809427,-1.44774 1.272179,-1.45017 0.653974,-0.003 0.776969,-0.58311 0.552224,-2.60235 -0.410853,-3.69141 -0.318791,-15.81009 0.217417,-28.62148 0.259318,-6.19538 0.234515,-12.51517 -0.05688,-14.489801 -0.484669,-3.28487 -0.433933,-3.56453 0.817967,-4.50883 1.553873,-1.1721 1.760487,-3.89513 0.467228,-6.157462 -1.151922,-2.015067 -1.064171,-4.269125 0.211106,-5.423242 0.785739,-0.711087 1.187805,-2.181765 1.481006,-5.417226 0.221336,-2.442624 0.924521,-5.990892 1.56261,-7.885062 1.120365,-3.325752 1.124922,-3.509384 0.132945,-5.351556 -0.917045,-1.702833 -0.952257,-2.345398 -0.32797,-5.985875 0.384624,-2.243058 0.699332,-5.238512 0.699332,-6.65657 0,-2.924506 1.233738,-4.143555 4.775088,-4.718237 3.717327,-0.603238 4.718696,0.737478 6.474823,8.668981 0.199746,0.902078 1.015205,2.292187 1.812157,3.089138 0.951601,0.951602 1.268359,1.678933 0.922766,2.118834 -0.289431,0.368395 -0.530716,1.060154 -0.536191,1.537266 -0.0049,0.477096 -0.19891,1.322849 -0.429852,1.879466 -0.353625,0.852293 -0.09688,1.012041 1.62664,1.012041 2.223157,0 3.693475,1.50094 4.865903,4.967277 0.725562,2.145094 0.294349,5.042618 -0.693988,4.663354 -0.383477,-0.147207 -0.697235,0.08655 -0.697235,0.519324 0,0.432786 0.197353,0.664907 0.438573,0.515831 0.24122,-0.149174 1.106644,0.03328 1.923153,0.405345 1.12902,0.514406 1.334897,0.856753 0.859637,1.429418 -0.393787,0.474489 -0.45167,1.456909 -0.156551,2.656156 0.257629,1.046745 0.478096,2.23937 0.489931,2.650271 0.01147,0.410885 0.35379,0.952454 0.759921,1.20346 0.489341,0.302431 -0.04885,0.692235 -1.595379,1.155593 -1.283588,0.384575 -2.333808,0.921177 -2.333808,1.192444 0,0.659744 1.489399,1.195264 3.324342,1.195264 1.253098,0 1.453565,0.760412 0.241859,0.91739 -0.979452,0.12688 -2.409592,0.992058 -2.409592,1.457679 0,0.284038 0.780707,0.516438 1.734898,0.516438 1.547889,0 1.734898,0.18985 1.734898,1.76118 0,1.15067 -0.547257,2.30338 -1.578691,3.32524 -2.743087,2.71763 -1.183117,4.744701 3.651411,4.744701 2.318891,0 3.09627,0.22938 3.392373,1.00099 0.21127,0.55055 0.145895,1.0804 -0.14524,1.17746 -0.291153,0.097 -1.021697,0.55248 -1.623427,1.01206 -0.941143,0.71885 -0.974174,0.91417 -0.236335,1.39778 0.673153,0.44121 0.23881,0.83593 -2.018493,1.83445 -2.719285,1.20287 -2.803773,1.30459 -1.548709,1.86461 1.327488,0.59234 1.327488,0.59234 -0.294709,1.28628 -1.622198,0.69394 -1.622198,0.69394 0.0082,1.34411 0.896751,0.35759 2.30181,0.48167 3.122334,0.27573 1.056155,-0.26508 1.370568,-0.17816 1.076498,0.29764 -0.228433,0.36964 -0.633351,0.53735 -0.899767,0.37269 -0.266432,-0.16467 -0.350642,0.21214 -0.187156,0.83734 0.163436,0.62519 0.464522,1.1152 0.66894,1.08891 1.244671,-0.16016 1.89135,0.28953 2.719268,1.89051 0.610976,1.18153 0.735676,1.99719 0.362379,2.37048 -0.313004,0.31302 -2.581782,0.79484 -5.0417,1.0707 -6.525083,0.73176 -6.822186,1.57721 -0.750019,2.13424 3.393799,0.31133 3.54512,0.38307 2.079933,0.98612 -1.580133,0.65036 -1.580133,0.65036 -0.289152,1.75572 0.710053,0.60796 1.367207,1.02527 1.460368,0.92737 0.302479,-0.3179 3.589577,1.22507 3.589577,1.68494 0,0.24545 -0.390361,0.59606 -0.867457,0.77915 -1.366814,0.5245 -1.042974,2.10275 0.433721,2.11381 1.145773,0.008 1.064088,0.16147 -0.683957,1.2803 -1.985133,1.27054 -1.985133,1.27054 0.443589,2.32964 7.428096,3.23917 18.134352,4.74556 30.456602,4.28532 15.37612,-0.5743 18.92895,-1.9603 20.56092,-8.02094 0.83357,-3.09566 0.46865,-5.80988 -1.70466,-12.6788 -0.94347,-2.98197 -2.00343,-6.52601 -2.35544,-7.87566 -0.86717,-3.32477 -2.66157,-4.19655 -8.63782,-4.19655 -4.48997,0 -7.57385,-0.7694 -7.57385,-1.8896 0,-0.30103 0.40387,-0.39237 0.89749,-0.20294 0.51046,0.19588 0.74641,0.1 0.54716,-0.22243 -0.19267,-0.31176 0.28561,-1.20277 1.06286,-1.98001 1.66636,-1.666361 1.12956,-2.066321 -2.77315,-2.066321 -1.5834,0 -2.76588,-0.33937 -3.26092,-0.93585 -0.67001,-0.80731 -0.5606,-1.10812 0.79664,-2.19034 1.75019,-1.39555 1.99333,-2.07852 0.74,-2.07852 -1.41611,0 -1.57803,-1.05845 -0.34985,-2.28665 1.17223,-1.172214 1.17223,-1.172214 -0.82577,-2.007033 -1.38808,-0.579977 -2.1169,-1.33193 -2.38748,-2.463262 -0.21421,-0.895637 -0.67225,-1.985724 -1.01786,-2.422412 -0.48716,-0.615565 -0.12164,-1.219492 1.62675,-2.687302 2.25514,-1.893301 2.25514,-1.893301 -0.82398,-3.217904 -3.07911,-1.324603 -3.07911,-1.324603 -0.67955,-2.486769 1.31975,-0.639204 2.39955,-1.317177 2.39955,-1.506596 0,-0.189451 -1.14075,-0.649547 -2.535,-1.022451 -4.55069,-1.217115 -8.529349,-4.188275 -5.60851,-4.188275 3.00371,0 3.88407,-1.85681 1.7822,-3.758964 -0.63614,-0.575682 -1.15661,-1.266605 -1.15661,-1.535381 0,-0.26876 0.52047,-0.488669 1.15661,-0.488669 0.98923,0 1.1566,-0.385542 1.1566,-2.664221 0,-2.199666 0.16064,-2.602585 0.92117,-2.310744 0.50665,0.194419 1.53325,0.507111 2.28134,0.694874 0.74808,0.187747 1.47443,0.772166 1.6141,1.298702 0.13966,0.526536 0.28413,-0.278776 0.32102,-1.789584 0.0561,-2.298252 0.24813,-2.746939 1.17549,-2.746939 0.60963,0 1.22813,0.325298 1.37445,0.722872 0.14639,0.397591 0.46413,-0.05787 0.70624,-1.012025 0.60566,-2.387084 1.34265,-3.180659 2.95388,-3.180659 2.01928,0 1.6921,-0.665777 -1.23636,-2.515883 -3.9355,-2.486327 -5.69405,-5.580334 -3.17171,-5.580334 0.93629,0 1.15659,-0.385526 1.15659,-2.02405 0,-2.298138 0.19437,-2.367086 3.16917,-1.124119 1.18461,0.494947 2.64447,0.820245 3.24413,0.722872 1.03637,-0.168304 1.02047,-0.327183 -0.32169,-3.213133 -0.77659,-1.669852 -1.24179,-3.036076 -1.03378,-3.036076 0.20801,0 0.0659,-0.312282 -0.31575,-0.693972 -1.12491,-1.124906 -0.80714,-1.61923 1.04094,-1.61923 1.59051,0 1.7349,-0.165108 1.7349,-1.983839 0,-1.59969 0.24535,-2.019607 1.26699,-2.168634 0.87605,-0.1277 1.41649,-0.76474 1.75144,-2.064262 0.26645,-1.033729 0.71596,-1.879482 0.99891,-1.879482 1.19284,0 2.30993,0.743839 1.96215,1.306538 -0.20635,0.333888 -0.10966,0.443015 0.21468,0.242515 0.32442,-0.200501 1.64537,0.670104 2.93544,1.934693 2.43207,2.384035 3.96503,2.799035 5.89257,1.595264 0.8819,-0.550749 1.69308,-0.55265 3.72666,-0.0082 4.30709,1.151971 5.88637,-0.48303 3.40419,-3.524301 -1.15841,-1.419321 -1.33419,-2.276467 -1.33419,-6.505871 0,-5.763704 0.0282,-5.472732 -0.65567,-6.750681 -0.80326,-1.500891 0.45717,-1.281866 2.49603,0.433737 2.07372,1.744914 3.0267,1.850139 2.61849,0.289152 -0.16635,-0.636138 -0.0513,-1.156609 0.25583,-1.156609 0.30707,0 0.40452,-0.248793 0.21658,-0.552896 -0.52424,-0.848392 2.26664,-2.425182 3.47309,-1.962233 0.80667,0.309545 0.96666,0.187222 0.69184,-0.5289455 -0.52672,-1.372601 1.03994,-1.482678 5.3588,-0.376526 4.14131,1.0606945 4.99406,0.9553715 5.51342,-0.680989 0.19258,-0.606746 0.60819,-1.103169 0.9236,-1.103169 0.3154,0 0.41262,0.260235 0.21604,0.578288 -0.19656,0.31807 -0.0539,0.578305 0.31691,0.578305 0.40005,0 0.51909,0.404443 0.29271,0.994403 -0.20988,0.5469115 -0.20473,0.8175405 0.0115,0.6013685 0.21617,-0.216171 1.07912,-0.0382 1.91766,0.395378 0.83856,0.433622 2.82238,0.968961 4.40852,1.189641 3.11143,0.432884 7.79944,2.37561 7.79944,3.232116 0,0.289694 0.39036,0.526717 0.86746,0.526717 0.47709,0 0.86746,-0.357281 0.86746,-0.793952 0,-0.436655 0.50642,-1.938808 1.12539,-3.338096 0.61893,-1.399288 1.19028,-3.6443785 1.26963,-4.9890785 0.14425,-2.444902 0.14425,-2.444902 2.90234,-2.444902 2.20081,0 2.88806,0.242826 3.40129,1.201788 0.35374,0.66099 0.49599,1.58533 0.31612,2.054098 -0.18382,0.479014 -0.0767,0.697546 0.24461,0.49898 0.31443,-0.19432 0.58637,0.117372 0.60432,0.692841 0.0656,2.1001615 1.43443,4.9970625 2.42789,5.1379585 0.55814,0.07918 0.86808,-0.09344 0.68876,-0.383608 -0.17932,-0.290152 0.20979,-0.527536 0.86468,-0.527536 0.65491,0 1.21982,0.195172 1.25538,0.43372 0.451,3.02583 0.42903,4.967047 -0.0843,7.452538 -0.78656,3.808585 -0.26299,5.817095 1.79358,6.88061 2.67006,1.380731 3.43077,1.113988 3.43077,-1.203001 0,-2.029952 0.02,-2.046492 2.02406,-1.67054 2.02405,0.379706 2.02405,0.379706 2.02405,-2.576159 0,-1.625722 -0.0651,-3.065009 -0.14458,-3.19843 -0.20732,-0.347822 2.57059,-3.227231 3.11348,-3.227231 0.24975,0 1.12171,0.715643 1.93768,1.590313 1.76727,1.894416 2.30638,1.389748 2.88211,-2.698023 0.20537,-1.458187 0.52552,-3.167447 0.71145,-3.798356 0.32363,-1.0981525 0.35844,-1.0919725 0.81589,0.144584 0.54966,1.485925 2.10619,1.670638 3.72978,0.442622 1.5849,-1.198755 1.84184,-1.114923 2.90921,0.949142 0.9489,1.834976 0.9489,1.834976 1.92068,0.546683 0.93316,-1.237147 1.00929,-1.246819 1.91718,-0.243596 1.71866,1.899088 2.13966,4.033412 1.78549,9.05185 -0.31386,4.447331 -0.22307,5.087453 1.00275,7.070881 1.19729,1.937251 1.41638,2.067328 1.96141,1.164495 0.33746,-0.558994 1.22898,-1.840369 1.98117,-2.847493 1.3676,-1.831123 1.3676,-1.831123 1.07227,-0.136552 -0.16246,0.932061 -0.0939,2.103113 0.15212,2.602355 0.24611,0.499243 0.89208,1.939611 1.43553,3.200839 0.54342,1.261229 1.73929,3.241641 2.65747,4.400923 0.91818,1.159297 1.48119,2.316054 1.25116,2.570569 -0.23004,0.254531 -0.0911,0.274431 0.30871,0.04426 0.42461,-0.244449 0.87126,-0.04246 1.07389,0.485588 0.66383,1.729881 1.98034,0.884423 3.52403,-2.263123 1.38037,-2.81451 1.65485,-3.075369 2.4647,-2.342464 0.59591,0.53929 1.20246,0.64486 1.75239,0.304988 0.54901,-0.339314 1.15427,-0.236318 1.74316,0.296611 0.79115,0.715988 1.22874,0.498931 3.5573,-1.764454 2.65519,-2.58088 2.65519,-2.58088 3.38162,-0.827131 0.39952,0.964568 0.56353,1.916645 0.36444,2.115735 -0.57789,0.577879 0.79137,1.875237 1.63677,1.550824 0.87626,-0.336249 1.35915,2.015558 1.58848,7.736657 0.13344,3.326933 0.24904,3.61438 1.45449,3.61438 1.72114,0 1.68989,1.165085 -0.16344,6.088724 -1.03324,2.745037 -1.35821,4.448822 -1.08861,5.707296 0.55519,2.591486 0.58704,2.608764 3.16913,1.719161 1.29534,-0.446278 2.97095,-0.862376 3.72359,-0.924668 0.75264,-0.06229 1.24174,-0.318283 1.08686,-0.568879 -0.15491,-0.25058 -0.0236,-0.455621 0.29187,-0.455621 0.3154,0 0.73891,-0.521258 0.94111,-1.15838 0.33028,-1.040614 0.45775,-1.068269 1.25399,-0.272055 0.53117,0.531192 0.75542,1.407829 0.55964,2.187847 -0.44001,1.753192 0.16734,3.869009 1.11063,3.869009 1.16825,0 1.3022,0.605779 0.86453,3.909991 -0.22165,1.673409 -0.28606,3.15948 -0.14311,3.302409 0.14294,0.142945 1.40001,-0.524585 2.79352,-1.48335 1.39351,-0.958765 2.79815,-1.57974 3.12142,-1.379929 0.32328,0.199779 0.51627,0.109012 0.42887,-0.201795 -0.0874,-0.310758 0.82585,-1.239114 2.02944,-2.062967 1.81334,-1.241278 2.24558,-1.348749 2.52247,-0.627188 0.18378,0.478916 0.0131,1.257786 -0.37967,1.730833 -0.59132,0.712496 -0.51532,0.860096 0.4428,0.860096 2.25747,0 2.77371,1.498104 1.65849,4.812824 -1.14231,3.395274 -1.30458,4.798382 -0.74969,6.482265 0.31255,0.948454 0.0298,1.309669 -1.46705,1.874712 -2.21496,0.836049 -1.58422,1.911334 1.16705,1.98956 1.6209,0.04606 1.75391,0.192435 1.46912,1.616411 -0.36259,1.812911 0.65189,2.281105 5.00331,2.309121 1.4313,0.0098 2.99271,0.277693 3.46981,0.596615 0.73366,0.490423 0.62219,0.796935 -0.72287,1.987457 -0.87469,0.77419 -1.59033,1.51116 -1.59033,1.63774 0,0.12655 1.69152,0.94903 3.75895,1.8277 2.06742,0.87867 3.75896,1.9133 3.75896,2.29915 0,1.70184 -5.03967,4.781994 -6.75019,4.125614 -0.95406,-0.3661 -0.97352,0.31959 -0.0656,2.31217 0.62422,1.37004 0.55224,1.66224 -0.64924,2.63512 -1.3513,1.09422 -1.3513,1.09422 0.12131,2.2526 0.82649,0.65012 1.90517,2.48729 2.45843,4.18713 0.54219,1.66582 1.38304,3.48417 1.86858,4.04079 1.05968,1.21482 3.34908,1.27693 5.32993,0.14458 0.79517,-0.45457 2.30068,-0.8357 3.34557,-0.84696 1.74259,-0.0189 1.84693,0.0784 1.26076,1.17364 -1.02405,1.91343 -1.16407,3.40655 -0.28794,3.07035 1.39335,-0.5347 1.61011,0.99996 0.3332,2.35917 -1.25259,1.33332 -1.25259,1.33332 0.37314,2.70412 0.89415,0.75394 1.52499,1.31342 1.40185,1.24331 -0.66751,-0.38015 -3.46298,2.3685 -3.79909,3.73546 -0.59926,2.43715 -1.95001,4.19909 -3.21912,4.19909 -1.64984,0 -1.40631,0.96521 0.35505,1.40727 0.99937,0.25083 1.39058,0.65688 1.17476,1.2193 -0.4304,1.12156 1.62647,1.11128 4.84484,-0.0243 5.03766,-1.77741 6.0762,-0.42936 2.3132,3.00258 -2.02407,1.84598 -2.02407,1.84598 0.27805,2.81046 2.30211,0.96449 2.30211,0.96449 0.28915,1.96224 -1.10713,0.54876 -3.50931,1.31955 -5.33819,1.71284 -1.82888,0.3933 -3.3227,0.89161 -3.31962,1.10735 0.003,0.21573 0.93242,1.55825 2.06518,2.98339 1.13276,1.42513 2.19778,3.28218 2.36669,4.12679 0.16893,0.8446 0.87311,1.79353 1.56487,2.10872 1.67756,0.76436 4.98536,3.57531 4.98536,4.23655 0,0.28979 -1.67559,0.5269 -3.72352,0.5269 -3.72353,0 -3.72353,0 -4.11377,2.60235 -0.4001,2.66806 -0.73809,3.04847 -1.78147,2.0051 -1.24831,-1.24831 -2.43971,0.01 -2.2697,2.39692 0.13295,1.86699 -0.10541,2.50108 -1.29126,3.43385 -1.63431,1.28554 -1.65662,1.21946 0.8397,2.48842 1.27087,0.64603 1.74633,1.24154 1.5593,1.95304 -0.24548,0.93385 0.20273,1.00863 5.11124,0.85288 5.38033,-0.1707 5.38033,-0.1707 1.75178,3.09491 -3.62854,3.26559 -3.62854,3.26559 -1.45592,5.66456 2.17263,2.39897 2.17263,2.39897 0.59247,2.58195 -1.82849,0.21174 -1.85568,0.33643 -0.75453,3.45745 0.98947,2.80444 0.71371,3.01003 -4.03748,3.01003 -3.11727,0 -3.11727,0 -2.9888,3.119 0.0707,1.71544 0.32366,3.00126 0.56221,2.85738 0.23855,-0.14393 0.43372,0.38303 0.43372,1.17095 0,0.78792 0.18055,1.90929 0.40123,2.49192 0.31869,0.84141 -0.0266,0.735 -1.67831,-0.51727 -1.87347,-1.42037 -2.122,-1.47767 -2.50826,-0.57829 -0.23581,0.54906 -0.37179,1.71393 -0.30217,2.5886 0.17452,2.19273 -1.30863,2.08528 -3.44094,-0.24932 -1.42139,-1.5562 -1.73756,-1.69036 -2.05207,-0.87077 -0.20448,0.53288 -0.62396,0.81302 -0.93217,0.62253 -0.30824,-0.19048 -0.24422,0.16 0.14229,0.77874 0.45194,0.7237 0.55399,1.91729 0.286,3.34572 -0.27697,1.4764 -0.57339,1.96697 -0.88441,1.46371 -0.25731,-0.41632 -0.76141,-0.57551 -1.12021,-0.35375 -0.35883,0.22176 -0.5198,0.61774 -0.35774,0.87996 0.16212,0.26222 -0.0939,1.57814 -0.56887,2.92426 -1.33032,3.77052 -1.14882,5.57488 0.60503,6.01507 1.46496,0.36768 1.46605,0.37286 0.44421,2.10267 -1.02001,1.72675 -1.01747,1.73961 0.60298,3.03169 1.62732,1.29758 1.62732,1.29758 -0.72609,2.3359 -1.29436,0.57108 -2.59414,0.88954 -2.88836,0.7077 -0.29423,-0.18185 -0.44029,0.25617 -0.32458,0.9734 0.62652,3.88302 0.90233,3.58348 -3.67749,3.99387 -2.32833,0.20863 -4.37774,0.52374 -4.55423,0.70022 -0.1765,0.1765 0.12049,1.42424 0.66014,2.77276 0.53957,1.34852 1.09306,3.92945 1.22995,5.73539 0.29612,3.9064 -0.36608,4.72665 -3.60858,4.46981 -2.1275,-0.16854 -2.21415,-0.1059 -2.15611,1.55931 0.0333,0.95419 0.16344,2.25537 0.28916,2.89149 0.12573,0.63614 -0.0315,1.15661 -0.34963,1.15661 -0.31807,0 -0.54262,-0.32249 -0.49901,-0.71666 0.0436,-0.39415 -0.13541,-0.58398 -0.39776,-0.42182 -0.26238,0.16213 -1.26304,-0.84759 -2.22371,-2.24386 -1.39044,-2.02095 -2.02025,-2.48639 -3.0882,-2.28224 -0.86527,0.16541 -1.7269,-0.16938 -2.42704,-0.94301 -1.26898,-1.4022 -2.7899,-1.54641 -3.77619,-0.358 -0.56282,0.67814 -0.39858,1.23451 0.84621,2.86651 0.88054,1.15443 1.36054,2.32282 1.1165,2.71768 -0.27073,0.43808 -0.18267,0.54099 0.23958,0.28002 0.56891,-0.35161 0.96057,0.40647 0.52307,1.0125 -0.0795,0.11016 0.16931,0.57847 0.55295,1.04071 0.97249,1.17179 1.59407,5.46503 0.85716,5.92047 -0.32669,0.20189 -0.94026,0.0331 -1.36348,-0.37487 -1.77346,-1.71 -3.34264,-0.29312 -3.37185,3.04453 -0.01,1.11324 -0.27588,2.41441 -0.59142,2.89151 -0.4872,0.73668 -0.73674,0.65704 -1.65517,-0.52813 -1.08148,-1.3956 -1.08148,-1.3956 -1.78881,-0.0739 -0.38903,0.72692 -0.55755,2.07058 -0.37448,2.98592 0.39691,1.98451 0.11066,2.03569 -2.49637,0.44636 -1.99069,-1.21358 -1.99069,-1.21358 -3.46981,0.58568 -0.81351,0.98958 -1.66426,1.79689 -1.89055,1.79402 -0.22629,-0.003 -0.69627,-1.06299 -1.04438,-2.35582 -0.98006,-3.63966 -2.01399,-2.55298 -2.01399,2.11675 0,4.73698 -0.57929,6.10733 -1.82807,4.32443 -0.46194,-0.65948 -1.16319,-1.19906 -1.55835,-1.19906 -0.72787,0 -2.10744,3.09755 -2.10744,4.73184 0,0.6523 -0.41125,0.81217 -1.53615,0.59712 -1.05772,-0.20218 -1.77256,0.0297 -2.29514,0.7443 -0.62611,0.85628 -0.91398,0.90933 -1.64449,0.30306 -0.48705,-0.40422 -0.88698,-1.02836 -0.88875,-1.387 -0.002,-0.35864 -0.28267,-1.65844 -0.62419,-2.88846 -0.62098,-2.23638 -0.62098,-2.23638 -2.17437,-0.37567 -0.85436,1.02339 -2.98066,2.69453 -4.72509,3.71367 -1.74444,1.01913 -3.80395,2.81948 -4.57671,4.00078 -0.95142,1.45443 -1.54585,1.9199 -1.84132,1.44182 -0.23997,-0.38828 -0.32487,-0.88631 -0.18864,-1.10671 0.13622,-0.22041 -0.13738,-0.54847 -0.60782,-0.72903 -0.61228,-0.23494 -1.39227,0.76316 -2.74361,3.51089 -1.8912,3.84542 -3.32611,5.24064 -3.34273,3.25028 -0.0198,-2.37223 -0.8771,-2.60603 -2.92802,-0.79849 -1.08828,0.95912 -2.17386,1.74801 -2.41241,1.75309 -0.53153,0.0115 -0.57783,-1.9671 -0.0582,-2.48675 0.82044,-0.82044 0.4788,-4.35517 -0.47869,-4.95264 -0.81175,-0.50652 -1.16997,-0.19376 -2.18896,1.91119 -0.67556,1.39551 -2.20553,3.20092 -3.43411,4.05233 -1.21864,0.84452 -2.81626,2.17474 -3.55027,2.95606 -1.24703,1.3274 -3.91382,2.06685 -3.18169,0.88221 0.18299,-0.29609 0.028,-0.72664 -0.34438,-0.9568 -0.38593,-0.23853 -0.52317,-0.16944 -0.31913,0.16065 0.50524,0.81751 -2.82217,3.86953 -3.65651,3.35388 -0.78602,-0.48578 -0.55754,-1.74934 1.04491,-5.77839 1.15002,-2.89151 1.15002,-2.89151 -0.30368,-4.91556 -0.79951,-1.11323 -1.32168,-1.62549 -1.16035,-1.13836 0.16131,0.48713 -0.67431,2.63363 -1.85699,4.77002 -2.15031,3.88432 -2.15031,3.88432 -3.54904,1.71665 -1.91087,-2.96137 -3.94766,-3.1792 -6.19621,-0.66263 -1.4246,1.5944 -2.20576,1.92981 -5.36106,2.30185 -3.04074,0.35854 -3.91475,0.71298 -4.94546,2.00562 -1.25197,1.57012 -1.25197,1.57012 -1.9393,0.28583 -0.51549,-0.96318 -1.02608,-1.19928 -2.0421,-0.94428 -1.25513,0.31502 -1.3406,0.18752 -1.16205,-1.73354 0.1842,-1.98206 0.12491,-2.05739 -1.34466,-1.70722 -0.84555,0.20148 -3.40597,1.13453 -5.68983,2.07346 -4.9454,2.03309 -6.19084,2.16425 -5.69425,0.59969 0.49809,-1.56936 -0.24758,-4.09728 -1.20859,-4.09728 -0.65563,0 -0.67681,-0.21272 -0.11131,-1.11823 0.38408,-0.61501 0.84171,-1.08714 1.01693,-1.04917 0.17522,0.038 1.22941,-0.32704 2.34264,-0.81115 1.11324,-0.48411 2.80109,-1.0733 3.75079,-1.30929 1.58801,-0.39461 1.63736,-0.4791 0.61409,-1.05174 -0.61195,-0.34247 -1.98006,-0.59005 -3.04023,-0.5502 -1.92757,0.0725 -1.92757,0.0725 -0.32493,-1.30778 1.60264,-1.38026 1.60264,-1.38026 -0.008,-1.7858 -2.56326,-0.64499 -5.04073,0.14426 -9.26561,2.95159 -3.8209,2.53895 -7.07743,4.16247 -6.58533,3.28308 0.13295,-0.23758 -0.10065,-1.21267 -0.51916,-2.16688 -0.41849,-0.95419 -0.77264,-1.4096 -0.787,-1.01202 -0.0148,0.39759 -0.30384,0.72288 -0.64335,0.72288 -0.34825,0 -0.4617,-0.49014 -0.26032,-1.12464 0.31879,-1.0044 -0.021,-1.16736 -3.1785,-1.52461 -2.49796,-0.2826 -3.35493,-0.58048 -2.92032,-1.01507 1.09261,-1.09262 0.67217,-1.44655 -2.50087,-2.10526 -1.7138,-0.35579 -3.57577,-1.15494 -4.13775,-1.77592 -0.95198,-1.05194 -0.95641,-1.20123 -0.0647,-2.18658 1.37675,-1.52128 1.22254,-1.77783 -1.31229,-2.18316 -1.77313,-0.28355 -2.19652,-0.56957 -1.93616,-1.30801 0.58921,-1.67117 2.11533,-3.06065 4.9284,-4.48718 3.78835,-1.92111 3.55853,-2.95371 -0.57829,-2.59816 -0.71564,0.0615 -1.30118,-0.15672 -1.30118,-0.48474 0,-0.74654 3.99199,-3.67052 6.33775,-4.64217 2.08026,-0.86166 2.20881,-1.46294 0.50747,-2.37346 -1.17954,-0.63127 -1.08074,-0.75043 1.72965,-2.08617 2.98065,-1.41663 2.98065,-1.41663 1.39557,-2.73472 -2.57275,-2.13939 -3.93919,-2.64652 -7.13091,-2.64652 -2.99459,0 -5.6513,1.34703 -7.93757,4.02458 -0.63934,0.74875 -0.71979,0.33708 -0.50405,-2.57882 0.25675,-3.46981 0.25675,-3.46981 -3.48448,-3.57577 -2.82561,-0.08 -3.92424,-0.35624 -4.48895,-1.12855 -0.49482,-0.67669 -1.45509,-1.00253 -2.83894,-0.9633 -2.497373,0.0708 -2.614319,-0.45097 -0.5335,-2.3804 1.59741,-1.4812 1.4663,-1.73152 -1.14341,-2.18296 -0.923016,-0.15967 -0.90146,-0.25894 0.20509,-0.94401 1.02604,-0.63524 1.16093,-0.63524 0.79233,0 -0.24436,0.42106 0.21602,0.072 1.02304,-0.77574 0.80701,-0.84774 2.54111,-2.08913 3.85355,-2.7587 1.31244,-0.66954 2.38623,-1.46009 2.38623,-1.75673 0,-0.53785 -3.57296,-1.74098 -5.18838,-1.74711 -0.46813,-0.002 0.0523,-0.62573 1.15661,-1.38658 1.10425,-0.76084 2.18006,-1.28007 2.39069,-1.15384 0.63917,0.38305 0.19461,-1.33401 -0.59022,-2.2797 -0.61175,-0.7371 -0.53484,-0.9925 0.45906,-1.52443 1.60148,-0.85708 1.50564,-1.65462 -0.25181,-2.09572 -0.79517,-0.19956 -1.44575,-0.53481 -1.44575,-0.74497 0,-0.73066 6.93561,-4.19013 7.65819,-3.81988 0.39995,0.20491 0.008,-0.29002 -0.8722,-1.09986 -1.59936,-1.47245 -1.59936,-1.47245 1.37692,-2.7528 2.76449,-1.18925 2.87947,-1.31618 1.6157,-1.78369 -1.69096,-0.62551 -2.24048,-1.46009 -2.25184,-3.41989 -0.005,-0.84066 -0.39482,-1.67658 -0.86656,-1.8576 -1.1032,-0.42333 -0.52376,-1.95851 0.91113,-2.41392 0.60675,-0.19257 1.10317,-0.82523 1.10317,-1.4059 0,-1.19513 1.09499,-1.75779 3.42073,-1.75779 1.9693,0 2.5501,-0.52265 1.70816,-1.53712 -0.51439,-0.6198 -0.29615,-0.77609 1.08363,-0.77609 2.71797,0 4.53831,-1.94487 7.36058,-7.86407 2.83788,-5.95203 3.14869,-8.11324 1.96293,-13.64918 -0.76349,-3.56445 -4.06378,-7.40392 -6.35974,-7.3987 -0.75307,0.002 -6.44381,-0.17882 -12.64609,-0.40118 -20.396558,-0.73127 -29.361986,-0.53297 -32.96317,0.72913 -3.08704,1.08189 -3.176889,1.17426 -3.052845,3.13874 0.190206,3.01251 0.306759,3.44821 0.835016,3.12173 0.264498,-0.16344 1.059728,0.10819 1.767192,0.60373 0.707463,0.49552 2.173257,0.90096 3.257345,0.90096 1.935201,0 1.96497,0.0374 1.637639,2.05448 -0.511356,3.15115 -2.472589,4.86135 -5.60094,4.884 -4.350481,0.0315 -4.63724,0.78841 -1.095071,2.89057 1.715522,1.01811 2.688155,1.71285 2.161439,1.54389 -1.318013,-0.4228 -2.998323,1.5527 -2.54244,2.98908 0.388362,1.22362 3.269427,2.57967 6.867807,3.23249 1.914055,0.34727 2.111211,0.52151 1.467581,1.29702 -0.619041,0.7459 -0.55924,1.0306 0.357232,1.70073 0.605402,0.44269 0.785804,0.80487 0.400885,0.80487 -0.451965,0 -0.57519,0.49674 -0.347887,1.40236 0.304282,1.21241 0.129503,1.42779 -1.290162,1.59031 -1.329012,0.15212 -1.607641,0.4361 -1.461204,1.48917 0.147044,1.05797 -0.09606,1.30118 -1.301177,1.30118 -0.920832,0 -1.482105,0.32308 -1.482105,0.85314 0,0.67683 -0.306545,0.73658 -1.4834,0.28916 -1.891793,-0.71927 -7.191105,-0.73647 -7.191105,-0.0233 0,1.38079 1.192755,3.43638 2.135783,3.6808 0.574682,0.14901 0.08426,0.30097 -1.089628,0.33787 -1.173986,0.0369 -2.274729,0.29397 -2.446116,0.57128 -0.390131,0.63125 4.481051,2.53188 6.489019,2.53188 1.286637,0 1.363307,0.0934 0.558896,0.68171 -0.853212,0.62389 -0.8539,0.73115 -0.0082,1.26467 1.247819,0.78708 0.696431,1.49076 -2.42687,3.09712 -1.449074,0.7453 -2.634698,1.71096 -2.634698,2.14593 0,0.43497 -0.67099,1.04596 -1.491104,1.35777 -1.491105,0.56691 -1.491105,0.56691 -0.289153,2.51172 0.661088,1.06964 1.201968,2.8964 1.201968,4.05949 0,1.77224 -0.256252,2.21211 -1.582428,2.71632 -1.443188,0.5487 -4.128015,2.83954 -3.327883,2.83954 0.577305,0 -3.127351,5.08807 -3.901811,5.35885 -0.529012,0.18496 -0.423311,0.60045 0.384165,1.50994 0.854031,0.96191 0.955256,1.41352 0.433736,1.93505 -0.374165,0.37417 -0.681759,1.08366 -0.68353,1.57666 -0.0082,2.21508 -1.332914,5.32461 -2.631239,6.17529 -3.599921,2.35876 -6.5969,-2.11432 -7.781311,-11.61383 -0.360445,-2.89106 -1.207378,-5.95453 -2.279729,-8.24608 -1.70621,-3.64608 -1.70621,-3.64608 -0.288365,-7.41294 1.721882,-4.57459 1.786092,-7.11285 0.255826,-10.11242 -1.682408,-3.29777 -2.231403,-11.79881 -0.925111,-14.3249 0.528127,-1.02132 1.243721,-1.85691 1.590199,-1.85691 0.379362,0 0.273431,-0.54413 -0.266285,-1.36783 -0.694365,-1.05976 -0.741904,-1.53473 -0.211073,-2.1089 0.531175,-0.57452 0.522684,-0.64935 -0.0377,-0.33294 -0.499881,0.2822 -0.722889,-0.0692 -0.722889,-1.13918 0,-1.30824 0.208058,-1.50753 1.346619,-1.28989 1.174805,0.22459 1.313472,0.0672 1.086989,-1.23375 -0.142781,-0.82015 -1.008993,-3.08981 -1.924907,-5.04367 -2.133275,-4.5508 -2.173323,-6.9867 -0.141469,-8.60685 1.337471,-1.06645 1.438631,-1.37419 0.827311,-2.51645 -0.471785,-0.88154 -0.508964,-1.52739 -0.115242,-2.00179 0.401329,-0.48357 -0.01475,-2.75448 -1.345077,-7.33638 -1.966561,-6.7746 -2.964127,-15.13676 -2.136914,-17.91288 z m 77.148128,77.17818 c 1.67623,0.36864 4.43954,0.13638 4.1405,-0.34811 -0.21451,-0.34752 1.43218,-1.30947 2.07623,-1.21286 0.15901,0.0238 0.32538,-0.56446 0.36966,-1.30735 0.15639,-2.62448 -4.69303,-2.29571 -6.86268,0.46526 -1.32026,1.68007 -1.27639,2.06158 0.27629,2.40306 z m 3.26611,-165.18482 c 2.24488,0.220516 4.02733,-0.855834 5.43121,-3.279655 1.03394,-1.785159 1.0336,-1.786995 -0.40302,-2.14757 -2.10998,-0.529569 -5.1379,0.677169 -6.26504,2.496834 -1.29349,2.088245 -1.03212,2.707515 1.23685,2.930391 z m -0.98183,11.555243 c 0.85043,0.850408 3.32438,0.896521 5.41688,0.100979 1.44845,-0.550699 1.49372,-0.66594 0.63441,-1.61546 -1.08842,-1.202689 -4.7768,-1.596788 -5.93652,-0.634302 -0.98965,0.821344 -1.0126,1.250983 -0.11475,2.148815 z m 3.57825,23.612976 c 4.53705,1.06431 5.38961,0.46755 3.23866,-2.26693 -1.38612,-1.762174 -3.82896,-2.418328 -5.97112,-1.603885 -1.55271,0.590337 -1.55271,0.590337 -0.3101,2.019455 0.68343,0.78602 2.05259,1.61912 3.04256,1.85136 z m 1.97325,139.563101 c 2.04733,0.0316 4.84333,-1.62998 4.62764,-2.75001 -0.13688,-0.71059 -0.93157,-1.02287 -2.9827,-1.17206 -2.28729,-0.16636 -3.05211,0.037 -4.20256,1.11787 -1.4064,1.32124 -1.4064,1.32124 -0.0893,2.05247 0.72438,0.40219 1.91552,0.74047 2.64696,0.75173 z M 130.21133,43.087297 c 2.15439,0 2.96135,-0.314512 4.33726,-1.690425 1.90141,-1.901399 2.11452,-2.809543 0.77956,-3.321817 -1.73946,-0.667498 -5.2986,0.891718 -6.51105,2.85241 -0.63623,1.028877 -1.17835,1.935742 -1.20469,2.015247 -0.0264,0.0795 1.14316,0.144585 2.59892,0.144585 z m 2.02604,198.935583 c 0.85816,0 2.13632,-0.46644 2.84034,-1.03654 1.0438,-0.84519 1.13568,-1.15067 0.4978,-1.65516 -1.69417,-1.33983 -3.78183,-1.37617 -5.41162,-0.0941 -1.49992,1.17983 -1.5298,1.29198 -0.53752,2.01755 0.57788,0.42256 1.75284,0.7683 2.611,0.7683 z m -0.0764,-160.310047 c 1.12969,0.09262 2.89593,0.01656 3.92496,-0.169174 1.49944,-0.270644 1.84964,-0.595304 1.7636,-1.634934 -0.059,-0.713463 -0.51062,-1.336225 -1.0035,-1.383879 -0.4929,-0.0477 -1.54743,-0.25158 -2.34345,-0.453146 -2.24273,-0.567912 -4.63627,0.577108 -4.50512,2.155176 0.0887,1.066892 0.50015,1.349487 2.16351,1.485957 z m 1.20369,185.787317 c 0.79318,1.48207 3.55674,2.85948 5.73714,2.85948 1.98058,0 2.13821,-0.48967 0.91757,-2.85015 -0.99325,-1.92073 -1.91162,-2.35456 -4.98425,-2.35456 -2.35175,0 -2.67941,0.46 -1.67046,2.34523 z m 4.53129,-214.003434 c 3.5771,0 5.74987,-1.101021 7.08096,-3.5882 0.86435,-1.615051 -0.13999,-2.174766 -3.92241,-2.185962 -2.57564,-0.0082 -3.23899,0.238548 -4.77098,1.770536 -0.97866,0.978665 -1.77938,2.279843 -1.77938,2.891507 0,0.970879 0.43075,1.112119 3.39181,1.112119 z m -1.07861,152.329724 c 0,0.95747 2.58201,3.35 3.07899,2.85302 0.21494,-0.21495 0.39082,-0.13065 0.39082,0.18722 0,0.31792 0.58553,0.53006 1.30118,0.47144 1.4414,-0.11819 1.47946,-0.98011 0.15589,-3.53124 -0.86511,-1.66752 -0.64915,-2.81392 0.40712,-2.16111 0.38369,0.23712 0.46054,0.11754 0.19771,-0.3078 -0.30472,-0.49305 -0.64358,-0.51848 -1.16316,-0.0872 -0.41043,0.34061 -1.55912,0.44329 -2.60941,0.23323 -1.30775,-0.26154 -2.0281,-0.13081 -2.37746,0.43162 -0.29537,0.47546 -0.27132,0.88605 0.0585,0.99964 0.30787,0.10606 0.55977,0.51607 0.55977,0.91122 z m 0.72287,18.38476 c 2.53213,0.25456 4.09899,-0.46802 5.25371,-2.42279 0.52967,-0.89666 0.96303,-1.72995 0.96303,-1.85178 0,-0.67765 -3.76249,-0.34715 -5.35884,0.47073 -3.29315,1.68725 -3.70595,3.51752 -0.8579,3.80384 z m 1.25671,-118.66739 c 1.52433,0 4.96003,-3.03512 4.96003,-4.38174 0,-0.45264 0.32529,-0.82695 0.72289,-0.83182 0.54932,-0.007 0.54033,-0.12458 -0.0374,-0.490961 -1.78267,-1.13045 -5.49235,0.639991 -6.5001,3.102171 -0.80671,1.971 -0.5994,2.60235 0.85457,2.60235 z m 1.49715,126.64794 c 3.11896,0 6.42994,-2.52228 5.43155,-4.13772 -0.70638,-1.14296 -5.03822,-0.10902 -6.45785,1.54146 -1.55966,1.81322 -1.25013,2.59626 1.0263,2.59626 z m 1.74765,20.41201 c 1.40304,0.72725 2.68183,0.93779 4.26244,0.70176 3.21436,-0.48001 3.40789,-0.74216 2.0037,-2.71417 -1.91645,-2.6914 -6.4719,-4.14372 -9.43314,-3.00738 -0.8402,0.32241 -0.82905,0.52911 0.11688,2.16861 0.5751,0.99675 1.94762,2.27978 3.05004,2.85118 z M 139.10595,89.206222 c 0.17256,-0.0359 1.41784,0.283005 2.76729,0.708545 1.63433,0.515402 2.85561,0.594332 3.65774,0.236417 1.18381,-0.528225 1.17678,-0.566502 -0.41518,-2.258893 -0.89068,-0.946864 -1.58241,-1.851844 -1.5372,-2.011051 0.0452,-0.159174 -1.06935,-0.197927 -2.47678,-0.0859 -2.41104,0.191746 -2.5518,0.298135 -2.43433,1.839828 0.0685,0.89998 0.26587,1.606968 0.43846,1.571117 z m 2.00167,-22.495362 c 1.06002,0.292693 2.6753,0.399902 3.58951,0.238236 1.97045,-0.348445 5.42115,-3.429535 5.42115,-4.840479 0,-2.17206 -7.40684,-1.872515 -9.27209,0.374969 -0.37954,0.457342 -0.85577,0.72961 -1.05829,0.605074 -0.20251,-0.124585 -0.42206,0.519766 -0.4879,1.431795 -0.10294,1.426878 0.14918,1.732505 1.80762,2.190405 z m -0.0369,122.9191 c 0.0461,0.77282 0.16065,1.3286 0.25441,1.23506 0.0938,-0.0936 0.87449,0.53305 1.73492,1.39242 1.80338,1.80124 6.59585,3.80252 7.90388,3.30057 1.17639,-0.45142 1.19072,-5.16069 0.0257,-8.46261 -0.47494,-1.34612 -0.69497,-2.72022 -0.48894,-3.05356 0.206,-0.33335 0.12933,-0.45453 -0.17037,-0.26929 -0.29973,0.18524 -0.86264,-0.38092 -1.25092,-1.25811 -1.24459,-2.81166 -4.72465,-6.41789 -6.19338,-6.41789 -1.21224,0 -1.3946,0.328 -1.68778,3.03607 -0.1808,1.66985 -0.41403,3.8168 -0.51831,4.77099 -0.10426,0.95419 -0.0779,2.31681 0.0587,3.02804 0.13655,0.71124 0.28597,1.92547 0.33212,2.69831 z m 3.14856,-66.52963 c 0.98166,-0.0449 2.57863,-0.64691 3.54882,-1.33775 0.97019,-0.69085 2.0662,-1.06929 2.43558,-0.841 0.38498,0.23794 0.51655,0.16419 0.30828,-0.1728 -0.19983,-0.32333 0.70545,-1.72978 2.01174,-3.12543 1.30628,-1.39567 3.02883,-3.94483 3.8279,-5.66479 2.00142,-4.30808 1.4999,-4.96615 -3.79411,-4.97847 -2.24147,-0.005 -3.97565,0.15196 -3.85374,0.34915 0.12197,0.19725 -0.43601,0.6583 -1.23981,1.02454 -0.85451,0.38933 -1.93601,1.73861 -2.60401,3.24879 -1.12089,2.53393 -2.8266,9.86228 -2.56056,11.00112 0.0743,0.31807 0.93826,0.54155 1.91991,0.49664 z m 1.5373,-84.30755 c 2.27707,-0.427196 5.06843,-1.745586 4.62811,-2.185913 -0.16196,-0.16196 0.10229,-0.623548 0.58704,-1.025893 1.19302,-0.990108 1.10825,-1.552282 -0.28917,-1.917726 -2.02203,-0.528766 -5.11827,0.685923 -6.03007,2.365675 -1.40496,2.588307 -1.16481,3.189496 1.10409,2.763857 z m 3.6388,104.93557 c 6.13518,1.7327 9.96385,1.85327 11.60775,0.36556 1.65008,-1.4933 2.01412,-4.54844 1.53394,-12.87371 -0.39951,-6.92627 -0.45942,-7.18265 -1.46568,-6.27201 -0.60448,0.54706 -1.37094,0.7636 -1.80845,0.51094 -0.41762,-0.24118 -0.57252,-0.23169 -0.34423,0.0212 0.55397,0.6134 -4.59944,4.515 -5.35049,4.05082 -0.32293,-0.19956 -0.51561,-0.12131 -0.4282,0.17386 0.0874,0.2952 -1.36757,1.78465 -3.23323,3.30992 -3.17333,2.59432 -5.52652,6.15036 -5.55884,8.40034 -0.008,0.62028 1.49733,1.31058 5.04743,2.3132 z m -2.13216,-65.876953 c 2.01474,1.43514 6.32485,2.050951 6.32485,0.903653 0,-1.10053 -3.24576,-3.863747 -4.52621,-3.853305 -1.81841,0.01475 -3.61755,0.716922 -3.41262,1.331733 0.11262,0.337741 0.83887,1.065794 1.61398,1.617919 z m 1.93255,164.342323 c 2.45867,2.25394 2.91664,2.46717 4.63375,2.15749 2.30927,-0.41648 2.41241,-1.26306 0.41449,-3.40185 -1.36996,-1.46655 -2.15651,-1.81799 -4.06861,-1.81799 -2.80021,0 -3.14487,1.07742 -0.97963,3.06235 z m 0.52342,25.60631 c 1.55625,1.80925 6.76037,3.02563 6.76037,1.58011 0,-2.39095 -3.38354,-4.80353 -6.73675,-4.80353 -1.73908,0 -1.74801,1.21871 -0.0236,3.22342 z m 1.41109,-177.518769 c 1.60684,1.219758 7.04728,0.999498 9.30456,-0.376707 2.26965,-1.383748 1.85085,-2.38733 -1.45096,-3.477024 -2.45234,-0.809361 -4.91344,-0.389903 -7.1794,1.223606 -1.96984,1.402649 -2.02218,1.60687 -0.6742,2.630125 z m 3.77662,-39.2143 c 3.14415,0.166895 3.33262,0.09147 5.70723,-2.283105 2.45571,-2.455722 2.45571,-2.455722 0.50106,-3.253296 -1.19946,-0.48944 -2.73595,-0.651007 -3.97689,-0.418213 -2.21474,0.415491 -6.11708,3.859747 -5.72378,5.051912 0.14622,0.443048 1.51923,0.797968 3.49238,0.902702 z m -0.39932,168.707759 c 2.06977,1.97261 5.44181,2.66701 5.44181,1.12062 0,-2.65074 -2.85848,-5.82655 -5.694,-6.32609 -1.86937,-0.32933 -1.91061,-0.29261 -1.74996,1.55842 0.1072,1.23552 0.80447,2.5056 2.00215,3.64705 z m 1.14221,-150.071259 c 2.97201,1.129955 9.69429,0.09688 10.34133,-1.589281 0.4218,-1.099185 -5.71174,-4.053231 -6.332,-3.049632 -0.15245,0.246597 -0.9952,0.627582 -1.87289,0.846639 -1.68364,0.42018 -3.61985,1.877924 -3.61985,2.7253 0,0.276645 0.66753,0.756773 1.4834,1.066974 z m -0.22715,98.355149 c 1.82906,5.30341 5.70403,7.45963 13.40576,7.45963 6.69193,0 6.98084,-0.14409 5.62142,-2.80244 -0.59431,-1.16222 -1.81654,-2.89382 -2.71606,-3.84801 -0.89954,-0.95421 -1.57043,-1.94943 -1.49089,-2.21162 0.0795,-0.2622 -0.10213,-0.32423 -0.40362,-0.13786 -0.30155,0.18635 -1.43329,-0.18337 -2.515,-0.82159 -2.40942,-1.42158 -6.4027,-2.02159 -9.93212,-1.49232 -2.86354,0.42941 -3.03496,0.76487 -1.96949,3.85422 z m 3.82281,63.30569 c 4.16138,0.64883 8.41672,-0.9235 7.31664,-2.70345 -0.80165,-1.29711 -5.45535,-2.92247 -7.24322,-2.5298 -1.09602,0.24073 -2.09226,0.0964 -2.71839,-0.39403 -0.86146,-0.67466 -0.89931,-0.65961 -0.29488,0.11721 0.56175,0.72199 0.47636,1.02688 -0.44955,1.60511 -1.10324,0.68899 -1.10725,0.7627 -0.11525,2.11631 0.6887,0.93969 1.84513,1.52988 3.50459,1.78862 z m -2.0222,24.02984 c 1.7868,2.11574 3.39034,2.82115 6.41294,2.82115 2.96213,0 3.69506,-0.69546 2.6974,-2.55957 -1.0684,-1.99634 -3.90235,-3.35783 -7.32233,-3.51777 -3.56702,-0.16685 -4.00508,0.63094 -1.78801,3.25619 z m 6.47563,-214.550426 c 3.17981,0.141306 3.61747,0.0066 5.39856,-1.657179 2.74025,-2.560242 2.33241,-3.855928 -1.28615,-4.086017 -1.55446,-0.09885 -3.50388,0.10475 -4.33206,0.452326 -1.69475,0.711349 -4.31817,4.092951 -3.66578,4.725188 0.23379,0.226581 1.98224,0.481145 3.88543,0.565682 z m -1.82719,161.944636 c 1.97468,4.1271 2.44218,4.63067 6.34283,6.83205 2.46417,1.39068 4.31429,1.96704 7.00859,2.18332 3.66063,0.29383 3.66063,0.29383 3.18455,-2.7178 -0.26185,-1.65641 -1.14425,-4.15181 -1.96091,-5.54531 -1.66495,-2.84105 -6.57711,-7.70251 -10.07371,-9.96975 -1.27063,-0.82388 -2.15461,-1.74979 -1.96439,-2.05759 0.19023,-0.30777 0.0531,-0.37864 -0.30482,-0.15753 -0.35787,0.22117 -1.47735,-0.0254 -2.48774,-0.54785 -1.83709,-0.94999 -1.83709,-0.94999 -1.53015,3.96984 0.22603,3.62286 0.69679,5.73461 1.78575,8.01055 z m 2.59719,43.88705 c 1.94997,0.80424 4.0026,0.67877 6.23627,-0.38117 2.67925,-1.27139 2.46995,-2.37897 -0.71588,-3.78819 -2.99873,-1.32649 -5.53713,-1.18664 -8.02273,0.44198 -1.54609,1.01304 -1.54609,1.01304 -0.19129,2.09413 0.74514,0.59458 1.95727,1.32955 2.69363,1.63325 z m 1.74857,19.7203 c 1.81961,2.03648 5.71753,3.01577 8.0449,2.02114 1.52295,-0.65085 1.62123,-1.11979 0.44009,-2.10003 -0.47358,-0.39305 -0.69362,-0.9856 -0.48894,-1.31677 0.20614,-0.33355 0.0951,-0.43093 -0.24889,-0.21832 -0.34158,0.21111 -1.03237,-0.0275 -1.53511,-0.53026 -0.50275,-0.50273 -0.91408,-0.79082 -0.91408,-0.6402 0,0.15065 -1.106,-0.0439 -2.45778,-0.43226 -4.58404,-1.317 -5.73068,-0.0184 -2.84019,3.2167 z m 2.46786,-184.862483 c 1.62292,1.165937 2.79343,1.865352 2.60114,1.554233 -0.21616,-0.349756 0.50727,-0.45072 1.8954,-0.26453 1.23475,0.1656 2.72083,0.03475 3.30238,-0.290628 0.96317,-0.539011 0.8426,-0.806492 -1.35352,-3.002634 -2.28044,-2.280417 -2.57651,-2.403494 -5.47087,-2.274204 -3.04601,0.13606 -4.74988,0.823623 -4.20915,1.698571 0.15606,0.252613 1.61172,1.413255 3.23462,2.579192 z m -0.15737,-55.633888 c 0.56791,0.567895 2.02275,1.193231 3.233,1.389633 2.1118,0.342707 2.18372,0.301168 1.7847,-1.030533 -0.7104,-2.370921 -1.98528,-3.956645 -3.48332,-4.33263 -0.79113,-0.198566 -1.43844,-0.584878 -1.43844,-0.85849 0,-0.273596 -0.41539,-0.338052 -0.92309,-0.143273 -1.17433,0.450638 -0.6712,3.47691 0.82715,4.97526 z m -0.33778,27.232894 c 3.44946,0.924405 7.77204,-0.509521 9.29188,-3.082402 1.12479,-1.904137 0.91201,-2.147242 -2.3337,-2.666254 -2.86157,-0.457588 -5.83478,0.806607 -7.24456,3.080336 -1.2802,2.064721 -1.25989,2.253926 0.28638,2.66832 z m 0.9148,228.821297 c 2.66624,-0.76467 3.97886,-1.85268 4.57382,-3.7912 0.56293,-1.83418 0.56293,-1.83418 -1.52312,-1.42108 -3.28965,0.65145 -3.92451,1.07963 -4.52113,3.04922 -0.72446,2.39176 -0.49646,2.72716 1.47043,2.16306 z m 0.35015,-218.083284 c 0.82171,0.609893 1.18142,0.648433 1.34936,0.144584 0.1259,-0.377837 0.7402,-0.686973 1.36503,-0.686973 1.27186,0 3.9723,-2.625485 3.9723,-3.862042 0,-2.275073 -4.76727,-1.54261 -6.55295,1.006812 -0.42876,0.612123 -0.92538,0.967158 -1.10358,0.788936 -0.17821,-0.178206 -0.28499,0.148683 -0.23729,0.726561 0.0477,0.577813 0.59091,1.424779 1.20713,1.882138 z m 2.81491,62.283214 c 0.58489,0.58489 7.55945,-4.72812 10.65962,-8.1202 3.71923,-4.06943 5.52634,-7.81249 5.83554,-12.08712 0.244,-3.37339 0.244,-3.37339 -1.99701,-2.9842 -1.23255,0.21408 -3.58738,0.98918 -5.23292,1.72249 -1.64555,0.7333 -3.1419,1.22664 -3.32522,1.09634 -0.18334,-0.13033 -0.20487,-0.0651 -0.0479,0.14491 0.15704,0.21001 -0.22881,0.74205 -0.85738,1.18233 -1.75129,1.22664 -4.57039,5.61917 -5.18784,8.08331 -0.57312,2.28722 -0.46055,10.34851 0.15311,10.96212 z m 0.54858,61.16975 c -0.23968,0.23966 -0.17553,0.35062 0.14262,0.24658 0.31805,-0.1041 1.57823,0.43083 2.80038,1.18862 2.66633,1.65323 9.05783,2.54185 10.11818,1.40673 0.97278,-1.04135 0.83587,-1.72147 -0.62968,-3.12797 -3.53487,-3.39247 -6.73666,-4.18749 -10.5118,-2.61014 -1.47452,0.61609 -2.11738,0.65105 -2.65885,0.14458 -0.39277,-0.36739 -0.28909,0.003 0.23042,0.82395 0.5195,0.82054 0.74846,1.688 0.5088,1.92766 z m 2.25335,-115.32447 c 1.9976,1.44704 2.95103,1.73852 5.68663,1.73852 1.80766,0 3.44662,-0.159993 3.6421,-0.355428 0.19548,-0.1955 -0.0223,-0.931913 -0.48395,-1.636492 -0.46165,-0.704578 -0.64328,-1.477154 -0.40362,-1.716816 0.23966,-0.239663 0.17552,-0.36056 -0.14262,-0.268662 -0.31807,0.09196 -1.41116,-0.276759 -2.42907,-0.819262 -1.01792,-0.542487 -2.63214,-0.986354 -3.58716,-0.986354 -1.92419,0 -4.68234,1.074498 -4.68234,1.824107 0,0.265023 1.07999,1.264196 2.39997,2.220387 z m -1.24336,162.33867 c 0.63613,0.16635 1.1566,0.49108 1.1566,0.72162 0,0.23055 1.21964,0.23409 2.71027,0.008 2.09503,-0.31794 3.15059,-0.89178 4.64994,-2.52785 1.06679,-1.16408 1.78359,-2.36904 1.59284,-2.67765 -0.59926,-0.96963 -6.21774,-0.64368 -7.83759,0.45471 -3.5223,2.38833 -4.16521,3.52623 -2.27206,4.02131 z m 0.61826,-34.84436 c 0.29608,-0.183 0.5178,-0.64265 0.49268,-1.02145 -0.0326,-0.49298 -0.12884,-0.48225 -0.33854,0.0377 -0.16114,0.39956 -0.57109,0.55453 -0.91114,0.34436 -0.3685,-0.22774 -0.44922,-0.10852 -0.1998,0.29499 0.23015,0.3724 0.66071,0.52737 0.9568,0.34436 z m 5.59848,-47.17887 c 2.78307,-0.0936 5.32036,-0.36284 5.63843,-0.59834 4.69673,-3.47751 7.51963,-7.51966 8.20621,-11.75061 0.3305,-2.03654 0.3305,-2.03654 -2.82087,-2.03654 -5.24738,0 -8.69754,1.35634 -11.55644,4.54313 -2.38612,2.6598 -4.39315,6.66564 -4.48488,8.95143 -0.0387,0.96403 0.42037,1.04553 5.01755,0.89093 z m -2.12778,110.37444 c 0.77269,0.39288 2.25068,0.71818 3.28437,0.72287 2.40943,0.0115 2.47576,-1.21907 0.18906,-3.50576 -1.3159,-1.3159 -2.21312,-1.69043 -4.04976,-1.69043 -2.35934,0 -2.35934,0 -1.59396,1.87949 0.42095,1.03371 1.39758,2.20094 2.17029,2.59383 z M 176.7201,91.664579 c 0.63612,0.63614 1.56232,1.15661 2.05818,1.15661 0.49587,0 0.76571,0.21985 0.59963,0.48856 -0.50704,0.82044 5.25284,-0.34032 6.83591,-1.37757 1.71595,-1.12435 1.54105,-1.64941 -0.98447,-2.955407 -1.82789,-0.945241 -8.11126,-1.541611 -7.60458,-0.721775 0.14786,0.239138 -0.25553,0.601206 -0.89628,0.804575 -1.4699,0.466522 -1.47208,1.141315 -0.008,2.605007 z m 6.17236,162.489751 c 2.4129,0.01 3.34838,-0.28724 4.83517,-1.5383 1.62185,-1.3647 1.73254,-1.63225 0.9208,-2.22582 -0.50744,-0.37105 -0.79669,-0.80059 -0.64275,-0.95452 0.15393,-0.15392 -0.30553,-0.21494 -1.02102,-0.13556 -0.7155,0.0793 -2.34184,0.16696 -3.6141,0.19464 -1.27226,0.0277 -3.20871,0.59628 -4.30321,1.26351 -1.99,1.21315 -1.99,1.21315 -0.5783,2.29819 0.9547,0.73377 2.3802,1.08918 4.40341,1.09787 z m -2.65422,-85.75347 c 0.70863,1.52907 1.2262,3.04037 1.15015,3.35843 -0.0761,0.31806 0.0425,0.39755 0.26338,0.17664 0.22093,-0.22091 1.05721,0.37741 1.85844,1.3296 3.30072,3.92269 10.47713,5.90635 16.05278,4.43723 2.83956,-0.7482 3.08535,-1.0732 2.52683,-3.34111 -0.21089,-0.85634 -3.75945,-4.60524 -6.09241,-6.43637 -1.95407,-1.53374 -8.87338,-4.0788 -12.91601,-4.75076 -2.06742,-0.34364 -3.97567,-0.89476 -4.24056,-1.22473 -0.93031,-1.15881 0.12196,3.69901 1.3974,6.45107 z m 1.95599,48.7445 c 0.78429,0.41976 1.31049,0.9501 1.16929,1.17855 -0.59756,0.96688 6.42222,0.21545 8.02808,-0.85938 1.65972,-1.11086 1.65972,-1.11086 0.45831,-2.0837 -0.66076,-0.53505 -1.06501,-1.10924 -0.8983,-1.27595 0.16672,-0.1667 -0.0395,-0.27545 -0.45831,-0.24166 -0.41878,0.0338 -1.75384,-0.15442 -2.96681,-0.41825 -1.66643,-0.36244 -2.76171,-0.22879 -4.48184,0.54686 -2.62607,1.1842 -2.86623,2.07471 -0.85042,3.15353 z m 2.64066,62.46708 c 1.39691,0 4.56336,-1.72783 5.13958,-2.80453 1.74405,-3.25875 -0.13032,-4.6597 -3.1043,-2.3203 -2.11664,1.66493 -3.4907,5.12483 -2.03528,5.12483 z m 2.55365,-244.009598 c 1.37787,2.10744 4.2669,3.436338 7.47056,3.436338 1.74955,0 1.91903,-0.84313 0.73031,-3.632953 -1.22808,-2.88218 -3.32039,-4.451838 -6.63193,-4.975326 -1.632,-0.257989 -3.11512,-0.3212 -3.29585,-0.140486 -0.54308,0.543093 0.29569,3.1234 1.72691,5.312427 z m 1.6022,168.777998 c 1.76872,1.72926 6.33745,3.61543 7.26286,2.99844 0.9386,-0.62581 -0.42153,-3.97617 -2.23295,-5.50039 -1.37246,-1.15484 -2.40877,-1.49369 -4.56816,-1.49369 -2.50537,0 -2.76195,0.11868 -2.49147,1.153 0.16583,0.63416 1.0792,1.91333 2.02972,2.84264 z m 2.20854,-151.250847 c 4.70569,1.925989 9.8616,1.652524 8.13216,-0.431327 -0.40451,-0.487407 -0.54122,-1.222885 -0.30382,-1.634393 0.2374,-0.411525 0.23864,-0.57524 0.003,-0.363838 -0.2359,0.211401 -1.35487,-0.244007 -2.48662,-1.012025 -2.20338,-1.495252 -5.3371,-1.818551 -7.96021,-0.821246 -1.49376,0.567928 -1.49968,0.593058 -0.47136,2.000346 0.57276,0.78387 1.96196,1.801977 3.08709,2.262483 z m 1.92007,175.119157 c 3.01163,1.53643 7.38554,1.2377 10.5432,-0.72007 1.24396,-0.77126 2.52198,-1.31718 2.84005,-1.21313 0.31807,0.10409 0.38538,-0.003 0.14966,-0.23953 -0.23579,-0.2358 -0.16617,-0.74504 0.15475,-1.13166 0.41754,-0.5031 0.17529,-0.97036 -0.85211,-1.64354 -0.78954,-0.51733 -1.72028,-0.94059 -2.0683,-0.94059 -0.34803,0 -0.50402,-0.20834 -0.34665,-0.46296 0.28716,-0.46464 -7.91779,-0.5253 -9.38692,-0.0693 -0.43104,0.13377 -1.66261,1.00272 -2.73684,1.93102 -2.26114,1.95393 -2.01961,2.59057 1.70329,4.48986 z m 1.08349,-159.298724 c 1.72928,0.19491 3.16139,-0.01852 4.39142,-0.654663 2.05687,-1.063646 3.86148,-3.451911 3.29765,-4.364202 -0.8185,-1.324373 -8.40109,-0.188435 -8.40109,1.258556 0,0.325905 -0.44029,0.235384 -0.97845,-0.201156 -0.72718,-0.589845 -0.86292,-0.601517 -0.52852,-0.04541 0.55898,0.929537 -0.69936,2.551554 -1.59462,2.055475 -0.36155,-0.200336 -0.22876,0.09164 0.29507,0.648991 0.52383,0.557273 2.10717,1.143397 3.51854,1.302472 z m -2.17535,64.930144 c 0.14934,0 1.20708,-0.52546 2.35049,-1.16768 1.14343,-0.64222 2.32886,-1.01324 2.63429,-0.82447 0.30543,0.18878 0.48382,0.0164 0.39643,-0.38404 -0.0874,-0.4 0.49167,-1.05455 1.28683,-1.45455 0.79517,-0.4 2.45118,-1.65059 3.68004,-2.77908 1.22885,-1.1285 2.50517,-1.88438 2.83628,-1.67975 0.34034,0.21033 0.43003,0.0938 0.20635,-0.26812 -0.21762,-0.3521 0.5229,-1.84354 1.64556,-3.31431 1.12266,-1.47077 2.04119,-3.04454 2.04119,-3.49727 0,-0.45274 0.20365,-0.82317 0.45254,-0.82317 0.24891,0 0.50916,-1.30118 0.57836,-2.89151 0.11589,-2.66464 0.022,-2.89149 -1.1985,-2.89149 -0.72836,0 -2.83151,0.39258 -4.67368,0.8724 -1.84214,0.47981 -3.65341,0.69833 -4.02502,0.48558 -0.37161,-0.21274 -0.48931,-0.18042 -0.26154,0.0718 0.37796,0.41861 -2.29581,2.96761 -3.00234,2.8622 -0.53233,-0.0793 -4.0895,5.77224 -4.42179,7.27402 -0.17596,0.79517 -0.40673,1.70598 -0.51284,2.02405 -0.30382,0.9108 -0.3151,8.38537 -0.0131,8.38537 z m 4.54955,111.72234 c 2.26252,0.74484 2.74653,0.72432 4.94615,-0.20987 2.67209,-1.13483 3.58641,-1.88593 4.59893,-3.7778 0.93749,-1.75172 0.91893,-1.78237 -1.48076,-2.44495 -3.03116,-0.83695 -6.33419,0.1762 -8.67862,2.66202 -1.04148,1.1043 -1.89361,2.21867 -1.89361,2.47639 0,0.25771 1.12856,0.84012 2.50791,1.29421 z m -0.0502,18.97154 c 3.15724,-0.003 6.04507,-1.75891 7.119,-4.32919 1.33734,-3.20069 1.12828,-3.76486 -1.39505,-3.76486 -2.80239,0 -5.81922,1.95177 -7.16879,4.63793 -1.5183,3.02197 -1.33578,3.45856 1.44484,3.45612 z m 0.1359,-182.179562 c 1.35753,2.625206 3.9822,4.141686 7.76134,4.484361 3.57319,0.324004 4.79422,-0.334904 3.50322,-1.890449 -0.38439,-0.463178 -0.53491,-0.84213 -0.33447,-0.84213 0.56591,0 -2.70155,-3.516138 -3.82892,-4.120311 -1.41832,-0.760117 -6.27357,-1.607755 -7.1915,-1.255523 -1.00222,0.384591 -0.97273,1.568363 0.0903,3.624052 z m 3.43404,107.852752 c 1.72801,4.13572 7.43998,6.67747 14.96421,6.65889 5.04399,-0.0131 5.37952,-0.3728 3.3407,-3.58769 -0.92865,-1.46432 -1.51361,-2.85726 -1.29992,-3.09545 0.2137,-0.23817 0.0964,-0.26638 -0.26058,-0.0626 -0.357,0.20373 -1.44866,-0.3937 -2.42592,-1.32762 -2.48331,-2.37318 -7.34285,-3.69701 -11.71036,-3.19012 -3.83734,0.44538 -4.13005,0.96216 -2.60813,4.60464 z m 3.58138,-39.11554 c 5.19389,1.4746 9.39546,0.23496 13.08927,-3.86189 2.70261,-2.9975 2.74636,-3.97604 0.19915,-4.45389 -2.17044,-0.40718 -11.62119,0.22009 -11.10426,0.73702 0.0946,0.0946 -1.1334,1.47763 -2.72904,3.07326 -1.65132,1.65134 -2.67158,3.10115 -2.36828,3.36543 0.29309,0.25535 1.604,0.76838 2.91316,1.14007 z m 2.39069,-114.877956 c 1.82473,1.697506 4.13041,2.389544 6.21674,1.865909 1.89097,-0.474604 1.82681,-1.502334 -0.22168,-3.550842 -1.35375,-1.353749 -2.10844,-1.64477 -4.01156,-1.546954 -3.97361,0.204238 -4.43317,0.953011 -1.9835,3.231887 z m 0.72288,126.854466 c 0,0.43719 0.99915,1.84524 2.22033,3.12895 1.22117,1.28374 2.14439,2.40999 2.05159,2.50279 -0.0928,0.0928 0.27429,0.2116 0.81576,0.26399 0.54145,0.0525 2.31973,0.41343 3.95168,0.80231 2.51293,0.59881 3.57512,0.55706 6.9378,-0.27277 4.40205,-1.08632 11.203,-4.06356 11.203,-4.90435 0,-1.14108 -3.92019,-4.30065 -7.51792,-6.05923 -3.26467,-1.59577 -4.36731,-1.83801 -8.38537,-1.84211 -5.3928,-0.007 -11.05037,1.90014 -11.836,3.98673 -0.25123,0.66728 -0.22822,1.29999 0.0512,1.40601 0.27938,0.10606 0.50796,0.55048 0.50796,0.98768 z m 1.01202,49.73358 c 2.34038,-0.57542 4.10389,-1.87423 5.37474,-3.95848 1.05963,-1.73785 1.54058,-5.58312 0.79193,-6.33176 -0.18656,-0.18659 -1.52197,0.35567 -2.96755,1.20502 -2.96362,1.74122 -4.78945,4.60991 -4.78945,7.52504 0,1.83783 0.0925,1.92848 1.59033,1.56018 z m 0.53906,-137.001302 c 1.33426,2.036328 4.85856,4.159259 7.64437,4.604733 2.72569,0.435852 6.41869,-0.141633 6.41869,-1.003746 0,-0.332348 -0.71564,-1.613936 -1.59033,-2.847985 -1.64818,-2.325333 -4.78677,-4.013233 -7.46252,-4.013233 -1.53367,0 -5.98297,1.158348 -5.98297,1.557627 0,0.119831 0.43773,0.886046 0.97276,1.702604 z m 1.14186,-12.29105 c 1.7474,1.747406 2.65701,2.031132 7.20614,2.247747 3.24859,0.154748 3.24859,0.154748 2.69223,-1.441303 -1.07266,-3.077025 -4.28189,-4.910525 -7.96489,-4.55049 -3.85514,0.376853 -4.34742,1.33011 -1.93348,3.744046 z m 3.581,200.337742 c 2.6974,0.19846 5.77984,-1.65132 5.83841,-3.50365 0.0684,-2.16055 -6.48407,-0.91647 -8.19939,1.55681 -0.8021,1.15649 -0.0595,1.76874 2.36098,1.94684 z m 4.27475,-15.5034 c 1.22726,0 2.97865,-0.38643 3.89197,-0.85872 1.93875,-1.00257 4.29952,-4.07694 3.77828,-4.92034 -0.87075,-1.40893 -8.9661,-0.22854 -8.9661,1.30735 0,0.30104 -0.40387,0.39236 -0.89749,0.20295 -0.49362,-0.18942 -0.7622,-0.12541 -0.59683,0.14212 0.16537,0.26758 -0.0693,0.98024 -0.52158,1.58372 -0.71915,0.95964 -0.70298,1.18786 0.12901,1.8201 0.52321,0.39757 1.95543,0.72287 3.18269,0.72287 z m -1.58544,-134.16629 c 3.5741,3.35769 9.50392,1.21279 13.21741,-4.78095 0.87549,-1.41311 0.88809,-1.64053 0.10753,-1.94009 -0.48635,-0.18663 -0.78033,-0.50724 -0.65328,-0.71246 0.12704,-0.20521 -1.63102,-0.22694 -3.90684,-0.0484 -4.16644,0.3271 -7.31853,1.3895 -7.31853,2.46672 0,0.32004 -0.17301,0.40885 -0.38446,0.1974 -0.33491,-0.3349 -2.34976,2.22126 -2.46477,3.12698 -0.0233,0.1831 0.6081,0.94391 1.40301,1.69068 z m -0.14409,106.49674 c 3.30815,2.03449 11.38069,-0.75995 13.10074,-4.53506 1.02796,-2.25609 0.1577,-2.67911 -4.66768,-2.26885 -5.87462,0.49944 -6.20915,0.5536 -5.95532,0.96429 0.12327,0.19952 -0.67652,1.23574 -1.77738,2.30273 -2.36179,2.28914 -2.40169,2.49059 -0.70036,3.53689 z m 1.19887,-85.95269 c 0.37433,-0.1136 1.3995,-0.3641 2.27815,-0.55676 1.56135,-0.34233 5.0529,-3.44675 5.0529,-4.49261 0,-0.28968 0.25727,-0.36767 0.57168,-0.17335 0.32783,0.20259 0.42477,-0.0295 0.22729,-0.54418 -0.49775,-1.29711 -5.49655,-1.21623 -7.07887,0.11459 -1.80479,1.5179 -3.05114,4.26907 -2.32843,5.13986 0.32817,0.39544 0.90295,0.62605 1.27728,0.5125 z m 1.44474,99.60419 c 2.51248,0.18903 3.43683,-0.0147 5.03734,-1.11166 2.24347,-1.53723 3.49709,-3.52277 2.86745,-4.54155 -0.7443,-1.2043 -6.96887,-0.43149 -8.55933,1.06268 -0.74361,0.69857 -1.56961,1.07258 -1.83555,0.83111 -0.26594,-0.24145 -0.30745,-0.13163 -0.0923,0.24391 0.21522,0.37561 0.11245,0.85528 -0.22847,1.06594 -0.34086,0.21066 -0.54022,0.79592 -0.44305,1.30055 0.12787,0.66363 1.02822,0.9816 3.25384,1.14902 z m 0.71701,-139.046451 c 2.9884,2.55795 7.94917,3.63704 12.58738,2.73802 4.16213,-0.80672 4.33265,-0.98542 2.85174,-2.98845 -1.82496,-2.46841 -5.9279,-5.024635 -8.74231,-5.446683 -2.775,-0.416148 -9.04542,1.598313 -9.04542,2.905963 0,0.42946 1.05687,1.68548 2.34861,2.79115 z m -1.90915,179.869691 c 0.24169,0.14934 1.26637,-0.0761 2.27707,-0.50106 1.39207,-0.58532 2.01013,-1.34847 2.54916,-3.14753 0.94652,-3.1592 0.16065,-4.03228 -2.31378,-2.5706 -2.20806,1.30434 -3.85771,5.38778 -2.51245,6.21919 z m 5.09281,-230.871188 c 0.50365,0.973928 1.77927,2.116669 2.87293,2.573635 2.94395,1.230049 3.35826,1.086218 2.9371,-1.019648 -0.41653,-2.082589 -1.86944,-3.941482 -3.08068,-3.941482 -0.44657,0 -0.68022,-0.213139 -0.51923,-0.473653 0.16098,-0.260514 -0.47421,-0.3611 -1.41161,-0.223516 -1.95373,0.286743 -2.05102,0.662564 -0.79851,3.084664 z m 2.55299,13.371219 c 2.36507,2.132095 2.90246,2.007772 2.90246,-0.671481 0,-1.815698 -0.35092,-2.557078 -1.77927,-3.758948 -0.9786,-0.823443 -2.1837,-1.497154 -2.67802,-1.497154 -1.56558,0 -0.49561,4.079132 1.55483,5.927583 z m 5.15168,146.946349 c 3.7473,-0.17801 6.4253,-3.50855 6.4253,-7.99094 0,-1.67661 -0.21336,-2.04263 -1.19074,-2.04263 -0.6549,0 -1.02989,0.26024 -0.83331,0.57831 0.19657,0.31805 0.10787,0.57829 -0.19718,0.57829 -0.95864,0 -4.71165,4.10908 -5.0749,5.55636 -0.19094,0.76079 -0.55616,1.38326 -0.81161,1.38326 -0.25543,0 -0.39206,0.45541 -0.30362,1.01203 0.11737,0.73902 0.65318,0.98863 1.98606,0.92532 z m -1.30845,55.48416 c 0.55529,0.55529 3.5749,-1.19541 4.25558,-2.46728 0.97447,-1.82083 1.12573,-4.64205 0.24886,-4.64205 -1.62138,0 -3.69359,1.38905 -4.2226,2.8305 -0.6566,1.78906 -0.78728,3.77337 -0.28184,4.27883 z m 2.82293,-109.60045 c 2.18144,0.19835 5.15549,-1.60478 6.62062,-4.01402 1.02993,-1.69357 1.04409,-1.89942 0.17451,-2.53528 -2.17139,-1.58775 -9.20096,2.82043 -8.70216,5.45708 0.1072,0.56652 0.8586,0.99689 1.90703,1.09222 z m 0.32729,85.21308 c 4.80348,1.34232 9.50701,-0.16213 12.03322,-3.8489 1.93127,-2.81849 1.40578,-3.52281 -2.74001,-3.67241 -4.16055,-0.15016 -6.507,0.84141 -9.18233,3.88019 -2.10828,2.39469 -2.12907,3.07714 -0.11082,3.64112 z m 1.14349,-56.02161 c 1.73678,1.6027 2.01997,1.69547 5.17494,1.69547 0.95419,0 1.87171,-0.0236 2.0389,-0.0526 0.56942,-0.0985 -1.34584,-3.22867 -2.81539,-4.60137 -0.94221,-0.88012 -2.43579,-1.47762 -4.187,-1.675 -2.72232,-0.30686 -2.72232,-0.30686 -2.32858,1.36816 0.21657,0.92124 1.16927,2.39064 2.11713,3.26531 z m -0.3222,-90.932527 c -0.20183,0.326577 0.0698,0.400213 0.65194,0.176812 0.80138,-0.307528 0.91444,-0.163928 0.57408,0.729496 -0.33566,0.881058 -0.27522,0.964948 0.29066,0.403311 0.55439,-0.55024 0.90072,-0.554535 1.54581,-0.01918 0.90148,0.748146 7.27359,0.994256 7.96245,0.307496 0.61084,-0.608959 -2.08956,-4.323516 -3.66494,-5.041307 -1.68409,-0.76733 -4.79868,-0.784477 -6.76404,-0.03721 -1.29257,0.491423 -1.41739,0.739659 -0.87836,1.746848 0.34558,0.645712 0.47266,1.425894 0.2824,1.73375 z m 2.72047,33.963637 c 1.77471,2.13843 9.66761,3.94634 10.60524,2.4292 0.18744,-0.30326 -0.18845,-1.29463 -0.83529,-2.20304 -0.64686,-0.90841 -0.98862,-1.85919 -0.75945,-2.11282 0.22916,-0.25364 0.10738,-0.28386 -0.27069,-0.0672 -0.37805,0.2167 -0.89852,0.0297 -1.15661,-0.4158 -1.222,-2.1088 -8.26654,-4.23624 -9.60276,-2.9 -0.4041,0.40408 0.98099,4.01822 2.01956,5.26961 z m 0.12655,-59.466961 c 0.50473,0.557732 0.72197,1.229852 0.48272,1.49358 -0.23924,0.263727 -0.11508,0.295627 0.27594,0.07098 0.39101,-0.224728 1.23678,-0.127208 1.87948,0.216779 1.083,0.579599 1.16856,0.454162 1.16856,-1.713424 0,-1.783945 -0.39215,-2.749152 -1.65294,-4.06846 -0.90912,-0.95129 -2.11444,-1.729636 -2.67849,-1.729636 -0.86592,0 -0.97634,0.367068 -0.70929,2.358103 0.17396,1.296932 0.72927,2.814412 1.23402,3.37216 z m -0.59193,11.271975 c 0.44336,1.061072 1.78836,2.67845 2.98891,3.594151 1.85108,1.411895 2.71732,1.66518 5.69981,1.666573 3.19143,0.0016 3.50043,-0.105406 3.33831,-1.15497 -0.0982,-0.636122 -0.69571,-1.877827 -1.32765,-2.759316 -0.63195,-0.881489 -1.00272,-1.839402 -0.82394,-2.128669 0.17878,-0.289283 0.0203,-0.714266 -0.35203,-0.944405 -0.42287,-0.26135 -0.52216,-0.167796 -0.26445,0.249187 0.61437,0.994059 -0.27799,0.80705 -1.5223,-0.319053 -1.31808,-1.192854 -8.54274,-1.866876 -8.54274,-0.797001 0,0.36533 0.36274,1.532398 0.80608,2.593503 z m 11.85194,178.598916 c 1.61292,-1.20424 2.66158,-4.52914 1.56159,-4.95126 -1.32606,-0.50885 -4.68537,1.65062 -5.69241,3.65928 -1.01478,2.02405 -1.01478,2.02405 0.81575,2.21219 1.14576,0.1177 2.38586,-0.22646 3.31507,-0.92021 z m -3.691,-201.377644 c 0.59397,1.14861 1.60634,1.90435 3.18439,2.377135 1.27246,0.381247 2.44319,0.563551 2.6016,0.405131 0.53357,-0.533569 -1.07136,-4.208832 -2.27899,-5.218857 -1.53444,-1.283342 -4.3778,-1.376584 -4.3778,-0.143601 0,0.492899 0.39185,1.653967 0.87081,2.58016 z m 1.65419,168.102504 c 5.69461,-0.91452 9.52405,-4.05497 10.71579,-8.78785 0.74662,-2.96509 0.82421,-5.31 0.18871,-5.70277 -0.24733,-0.15278 -1.87381,0.23053 -3.61438,0.852 -1.74057,0.62148 -3.42489,1.19231 -3.74296,1.26854 -0.31807,0.0762 -0.57831,0.30709 -0.57831,0.51303 0,0.20594 -0.59696,1.00989 -1.3266,1.78657 -1.78268,1.89758 -3.44026,6.42556 -3.12888,8.54713 0.20205,1.37658 0.4999,1.6818 1.48663,1.52335 z m 1.81226,-29.13566 c 4.32127,-0.20182 4.89772,-0.32041 4.521,-0.92996 -0.23283,-0.37672 2.4e-4,-0.46088 0.61887,-0.22348 0.54925,0.21076 0.84551,0.14327 0.6635,-0.15131 -0.18088,-0.29267 0.17013,-0.88162 0.78002,-1.30881 1.49355,-1.04611 3.71933,-4.90069 3.25949,-5.64471 -0.56043,-0.9068 -4.61158,-0.71432 -7.25879,0.34489 -2.74489,1.09828 -5.30062,4.42008 -5.05921,6.57568 0.14508,1.29551 0.4023,1.43452 2.47512,1.3377 z m 1.70998,-21.24626 c 1.04707,-0.19643 2.69381,-1.11215 3.65943,-2.03493 0.9656,-0.92279 1.85599,-1.57745 1.97864,-1.4548 0.12262,0.12262 0.20876,-0.48291 0.19135,-1.3457 -0.0293,-1.45714 -0.20263,-1.56541 -2.43592,-1.52238 -2.95829,0.0571 -5.23761,1.4776 -6.25888,3.90086 -0.66558,1.57928 -0.65245,1.90419 0.0939,2.32497 0.4772,0.26902 1.72434,0.32841 2.77143,0.13196 z m 0.12704,-19.57345 c 1.95579,3.01629 4.75486,4.33317 8.70479,4.0954 2.97199,-0.17891 2.97199,-0.17891 1.84096,-2.78127 -1.77587,-4.08602 -6.53799,-6.57705 -10.61648,-5.55342 -1.87076,0.46954 -1.85748,1.26556 0.0707,4.23929 z m 2.23406,-81.368707 c 2.56334,1.584232 3.73598,1.480761 3.73598,-0.329642 0,-1.995396 -2.41913,-4.310975 -4.50373,-4.310975 -0.91564,0 -1.8209,0.156059 -2.01166,0.346838 -0.6673,0.667318 0.94712,3.161349 2.77941,4.293779 z m -0.1413,167.644097 c 1.01504,-0.29112 1.90562,-0.52929 1.97906,-0.52929 0.40479,0 1.89816,-3.58545 1.89816,-4.55731 0,-0.97932 -0.23008,-1.07586 -1.59033,-0.66727 -2.95462,0.88752 -3.42737,1.22475 -4.32108,3.08237 -1.17713,2.4468 -0.46112,3.38714 2.03419,2.6715 z m 0.12032,-130.53468 c 0.79634,1.58548 1.26687,3.18468 1.0456,3.55379 -0.24339,0.40602 -0.0361,0.37448 0.52468,-0.0798 0.68666,-0.55627 1.03365,-0.57834 1.33847,-0.0851 0.52991,0.85741 6.03127,3.42542 7.35397,3.43282 2.41728,0.0131 0.58099,-7.28278 -2.68591,-10.67218 -2.14659,-2.227101 -5.60258,-3.779711 -8.41332,-3.779711 -1.15089,0 -0.63571,4.699131 0.83651,7.630271 z m 4.61163,20.0383 c 2.50123,1.71386 5.11606,2.40308 9.11708,2.40308 4.17039,0 4.31145,-0.78292 0.77768,-4.31669 -2.6647,-2.6647 -5.27551,-3.61453 -8.29561,-3.018 -0.87257,0.17236 -2.10696,0.39682 -2.7431,0.4988 -2.55923,0.41031 -2.09367,2.21436 1.14395,4.43281 z m -0.48908,-40.675097 c 1.06395,1.667474 3.86603,3.198429 4.79885,2.621928 1.13333,-0.700448 0.26651,-3.534826 -1.52112,-4.973932 -0.95828,-0.771429 -2.04828,-1.106497 -3.09819,-0.952405 -1.70636,0.250433 -1.73946,0.859638 -0.17954,3.304409 z m 8.02463,86.553917 c 0.95703,3.81311 6.28654,6.76368 10.64315,5.89235 2.15682,-0.43136 2.21593,-0.98455 0.36459,-3.41177 -0.78141,-1.02448 -1.36694,-1.95987 -1.30117,-2.07863 0.0657,-0.11885 0.0188,-0.15852 -0.10426,-0.0885 -0.12311,0.0702 -1.02288,-0.44146 -1.99945,-1.13684 -1.28188,-0.91279 -2.82759,-1.31989 -5.55913,-1.46414 -2.08097,-0.10983 -3.47891,0.0131 -3.10654,0.27517 0.37237,0.26125 0.85066,1.16679 1.06286,2.01231 z m 1.91132,-25.61452 c 1.20948,1.42698 2.51292,2.69912 2.89653,2.827 0.9402,0.3134 2.41593,-3.36962 2.41593,-6.02953 0,-2.09708 -2.00175,-7.14078 -2.83405,-7.14078 -0.22971,0 -1.04615,-0.58551 -1.81432,-1.30117 -0.76815,-0.71565 -1.51361,-1.30118 -1.65657,-1.30118 -0.93282,0 -1.77633,3.86352 -1.50873,6.91049 0.25625,2.918 0.63622,3.83482 2.50121,6.03517 z m -0.13098,77.06798 c 4.79996,-0.57375 7.7214,-3.73747 8.21735,-8.89889 0.271,-2.82038 0.24684,-2.87415 -1.10386,-2.45588 -4.84736,1.5011 -7.89187,4.43252 -8.64595,8.32488 -0.56231,2.90239 -0.38208,3.25873 1.53246,3.02989 z m 3.84973,-22.06326 c 0.2404,0 0.43707,0.375 0.43707,0.83332 0,1.6116 0.96288,1.39314 3.308,-0.75052 3.08492,-2.81991 4.038,-6.02896 3.07222,-10.34449 -0.75423,-3.37028 -1.37949,-3.66587 -3.77252,-1.7835 -2.36445,1.85986 -3.79272,5.4104 -3.62409,9.00911 0.0782,1.66984 0.33894,3.03608 0.57932,3.03608 z M 269.0149,99.548709 c 0.50788,1.495891 1.25092,3.047321 1.6512,3.447601 1.59578,1.59579 4.75081,3.1216 6.45898,3.12365 1.80482,0.002 1.80482,0.002 1.33941,-2.4891 -0.25599,-1.37019 -0.78035,-3.18243 -1.16523,-4.027171 -0.91488,-2.00797 -4.45322,-4.42738 -7.10401,-4.85754 -1.8589,-0.30165 -2.10374,-0.20032 -2.10374,0.87067 0,0.66663 0.41552,2.43598 0.92339,3.93189 z m 1.94089,61.512011 c 3.08666,0 5.00878,-0.97201 6.32139,-3.19674 1.46256,-2.47885 0.84552,-3.25816 -2.44491,-3.08784 -2.71269,0.14048 -4.01026,1.01109 -5.4876,3.68223 -1.13977,2.06077 -0.80449,2.60235 1.61112,2.60235 z m 3.81376,-35.43835 c 1.45526,2.92029 3.84939,5.14112 4.8654,4.51318 0.28769,-0.17779 0.82521,-1.77868 1.19449,-3.55756 0.57111,-2.75097 0.526,-3.61515 -0.30187,-5.78287 -0.92432,-2.42033 -3.92691,-5.42019 -5.42509,-5.42019 -2.12125,0 -2.32434,6.25121 -0.33293,10.24744 z m 6.98738,59.58242 c 0.19178,0.71564 0.68688,1.30118 1.1002,1.30118 0.9071,0 5.07926,-3.98557 5.44842,-5.20471 0.57752,-1.90729 0.20059,-7.32369 -0.61581,-8.84908 -0.86719,-1.62031 -0.86719,-1.62031 -2.69579,0 -1.00571,0.89117 -2.21731,2.53113 -2.69242,3.64437 -0.88509,2.07387 -1.16685,6.78632 -0.5446,9.10824 z m 2.68481,-46.37352 c 0.48421,0.93637 1.42137,2.19206 2.08256,2.79045 0.66118,0.59836 1.07694,1.29055 0.9239,1.53818 -0.15311,0.24765 0.17838,0.36289 0.73651,0.25612 0.55814,-0.10672 1.19129,-0.21406 1.40704,-0.23838 0.21573,-0.0243 0.71246,-1.47514 1.10384,-3.22399 0.94985,-4.24434 0.11885,-6.99803 -2.9477,-9.76853 -2.77342,-2.5056 -3.33352,-2.57904 -3.79267,-0.49724 -0.19291,0.87469 -0.54817,2.24093 -0.78946,3.03609 -0.4798,1.5812 -0.0834,3.47857 1.27598,6.1073 z m -0.37721,15.46313 c 1.86989,3.69268 3.289,4.66203 8.16339,5.57629 3.45009,0.6471 4.25824,-0.41149 2.39371,-3.13556 -1.62305,-2.3713 -5.67264,-4.72244 -9.06941,-5.2656 -2.75045,-0.43982 -2.94949,-0.062 -1.48769,2.82487 z"
       id="path3371"
       inkscape:connector-curvature="0" />
  </g>
</svg>
